<svg xmlns="http://www.w3.org/2000/svg" xmlns:xlink="http://www.w3.org/1999/xlink" width="500" zoomAndPan="magnify" viewBox="0 0 375 374.999991" height="500" preserveAspectRatio="xMidYMid meet" version="1.0"><defs><g/><clipPath id="9d921aeda5"><path d="M 100 202 L 311 202 L 311 317 L 100 317 Z M 100 202 " clip-rule="nonzero"/></clipPath><clipPath id="7c15a3795b"><path d="M 110.253906 182.375 L 332.265625 218.914062 L 311.925781 342.503906 L 89.914062 305.964844 Z M 110.253906 182.375 " clip-rule="nonzero"/></clipPath><clipPath id="74884c2cf6"><path d="M 110.253906 182.375 L 332.265625 218.914062 L 311.925781 342.503906 L 89.914062 305.964844 Z M 110.253906 182.375 " clip-rule="nonzero"/></clipPath><clipPath id="0a74cb3e7d"><path d="M 110.253906 182.375 L 332.265625 218.914062 L 311.925781 342.503906 L 89.914062 305.964844 Z M 110.253906 182.375 " clip-rule="nonzero"/></clipPath><clipPath id="0ef82b6223"><path d="M 165.613281 328.546875 L 231.585938 328.546875 L 231.585938 355.542969 L 165.613281 355.542969 Z M 165.613281 328.546875 " clip-rule="nonzero"/></clipPath></defs><g fill="#000000" fill-opacity="1"><g transform="translate(90.777612, 345.893562)"><g><path d="M 1.21875 0 L 5.53125 0 C 7.296875 0 8.742188 -1.445312 8.742188 -3.273438 C 8.742188 -4.128906 8.332031 -4.964844 7.617188 -5.453125 C 8.300781 -5.925781 8.589844 -6.777344 8.621094 -7.601562 C 8.667969 -9.519531 7.464844 -10.90625 5.53125 -10.90625 L 1.21875 -10.90625 Z M 3.410156 -8.726562 L 5.347656 -8.726562 C 5.972656 -8.726562 6.351562 -8.242188 6.351562 -7.632812 C 6.351562 -7.039062 5.972656 -6.535156 5.347656 -6.535156 L 3.410156 -6.535156 Z M 3.410156 -4.355469 L 5.347656 -4.355469 C 5.972656 -4.355469 6.441406 -3.882812 6.441406 -3.273438 C 6.441406 -2.664062 5.972656 -2.179688 5.347656 -2.179688 L 3.410156 -2.179688 Z M 3.410156 -4.355469 "/></g></g></g><g fill="#000000" fill-opacity="1"><g transform="translate(112.422012, 345.893562)"><g><path d="M 6.640625 0 L 9.109375 0 L 6.582031 -4.492188 C 9.777344 -5.421875 9.398438 -10.890625 5.515625 -10.890625 L 1.21875 -10.890625 L 1.21875 0 L 3.398438 0 L 3.398438 -4.160156 L 4.449219 -4.160156 Z M 3.398438 -6.277344 L 3.398438 -8.714844 L 5.316406 -8.714844 C 6.792969 -8.714844 6.792969 -6.277344 5.316406 -6.277344 Z M 3.398438 -6.277344 "/></g></g></g><g fill="#000000" fill-opacity="1"><g transform="translate(133.944625, 345.893562)"><g><path d="M 0.242188 0 L 2.710938 0 L 3.136719 -1.171875 L 6.746094 -1.171875 L 7.191406 0 L 9.640625 0 L 5.058594 -11.289062 L 4.828125 -11.289062 Z M 3.929688 -3.214844 L 4.949219 -6.046875 L 5.941406 -3.214844 Z M 3.929688 -3.214844 "/></g></g></g><g fill="#000000" fill-opacity="1"><g transform="translate(156.076141, 345.893562)"><g><path d="M 3.398438 0 L 3.398438 -10.890625 L 1.21875 -10.890625 L 1.21875 0 Z M 3.398438 0 "/></g></g></g><g fill="#000000" fill-opacity="1"><g transform="translate(172.894973, 345.893562)"><g><path d="M 3.398438 -5.925781 L 8.910156 0.226562 L 9.488281 0.226562 L 9.488281 -10.875 L 7.296875 -10.875 L 7.296875 -4.722656 L 1.796875 -11.121094 L 1.21875 -11.121094 L 1.21875 0 L 3.398438 0 Z M 3.398438 -5.925781 "/></g></g></g><g fill="#000000" fill-opacity="1"><g transform="translate(195.80285, 345.893562)"><g/></g></g><g fill="#000000" fill-opacity="1"><g transform="translate(212.317234, 345.893562)"><g><path d="M 1.21875 0 L 5.53125 0 C 7.296875 0 8.742188 -1.445312 8.742188 -3.273438 C 8.742188 -4.128906 8.332031 -4.964844 7.617188 -5.453125 C 8.300781 -5.925781 8.589844 -6.777344 8.621094 -7.601562 C 8.667969 -9.519531 7.464844 -10.90625 5.53125 -10.90625 L 1.21875 -10.90625 Z M 3.410156 -8.726562 L 5.347656 -8.726562 C 5.972656 -8.726562 6.351562 -8.242188 6.351562 -7.632812 C 6.351562 -7.039062 5.972656 -6.535156 5.347656 -6.535156 L 3.410156 -6.535156 Z M 3.410156 -4.355469 L 5.347656 -4.355469 C 5.972656 -4.355469 6.441406 -3.882812 6.441406 -3.273438 C 6.441406 -2.664062 5.972656 -2.179688 5.347656 -2.179688 L 3.410156 -2.179688 Z M 3.410156 -4.355469 "/></g></g></g><g fill="#000000" fill-opacity="1"><g transform="translate(233.961638, 345.893562)"><g><path d="M 3.882812 0 L 6.046875 0 L 6.046875 -4.90625 L 9.855469 -10.890625 L 7.191406 -10.890625 L 4.964844 -7.144531 L 2.742188 -10.890625 L 0.0898438 -10.890625 L 3.882812 -4.90625 Z M 3.882812 0 "/></g></g></g><g fill="#000000" fill-opacity="1"><g transform="translate(256.032277, 345.893562)"><g><path d="M 5.195312 0 L 5.195312 -8.714844 L 7.90625 -8.714844 L 7.90625 -10.875 L 0.304688 -10.875 L 0.304688 -8.714844 L 3.015625 -8.714844 L 3.015625 0 Z M 5.195312 0 "/></g></g></g><g fill="#000000" fill-opacity="1"><g transform="translate(276.550205, 345.893562)"><g><path d="M 6.855469 0 L 6.855469 -2.179688 L 3.398438 -2.179688 L 3.398438 -4.355469 L 6.261719 -4.355469 L 6.261719 -6.535156 L 3.398438 -6.535156 L 3.398438 -8.714844 L 6.671875 -8.714844 L 6.671875 -10.890625 L 1.21875 -10.890625 L 1.21875 0 Z M 6.855469 0 "/></g></g></g><g fill="#ffffff" fill-opacity="1"><g transform="translate(50.677816, 309.928888)"><g><path d="M 242.253906 -102.347656 C 235.019531 -80.980469 221.234375 -66.851562 202.28125 -66.851562 L 201.9375 -66.851562 C 209.519531 -79.949219 214.6875 -96.832031 214.6875 -114.40625 C 214.6875 -132.671875 208.828125 -151.625 194.355469 -167.132812 C 217.445312 -182.640625 233.296875 -212.964844 233.296875 -239.5 C 233.296875 -274.648438 206.761719 -295.667969 176.78125 -298.769531 C 173.679688 -299.113281 169.890625 -299.460938 165.066406 -299.460938 C 155.414062 -299.460938 142.664062 -298.082031 129.570312 -291.535156 C 129.570312 -302.90625 119.234375 -309.796875 107.515625 -309.796875 C 95.800781 -309.796875 82.703125 -302.5625 77.878906 -286.710938 L -12.40625 -31.359375 C -14.128906 -26.878906 -14.816406 -22.398438 -14.816406 -18.953125 C -14.816406 -4.824219 -4.136719 3.445312 7.582031 3.445312 C 19.640625 3.445312 33.082031 -5.167969 36.527344 -24.121094 C 48.589844 -6.890625 75.125 3.789062 102.347656 3.789062 C 128.535156 3.789062 156.449219 -5.167969 177.125 -26.535156 C 183.671875 -24.464844 190.566406 -23.433594 198.835938 -23.433594 C 239.152344 -23.433594 271.546875 -51.347656 283.609375 -93.386719 C 283.953125 -95.109375 284.296875 -96.832031 284.296875 -98.210938 C 284.296875 -109.582031 273.269531 -116.132812 262.242188 -116.132812 C 253.628906 -116.132812 245.011719 -111.996094 242.253906 -102.347656 Z M 118.886719 -202.28125 C 107.859375 -197.800781 97.867188 -183.671875 97.867188 -167.820312 C 97.867188 -164.71875 98.210938 -161.617188 98.902344 -158.515625 C 104.757812 -140.253906 120.265625 -134.738281 133.359375 -134.738281 C 138.53125 -134.738281 143.355469 -135.429688 146.800781 -136.808594 C 155.414062 -134.738281 160.238281 -127.160156 160.238281 -115.785156 C 160.238281 -109.929688 159.207031 -103.378906 156.449219 -95.800781 C 144.042969 -107.859375 125.433594 -116.820312 102.347656 -117.164062 C 91.320312 -117.164062 78.226562 -115.441406 69.609375 -111.652344 L 110.960938 -226.058594 C 119.578125 -242.945312 138.875 -251.214844 153.691406 -251.214844 C 166.097656 -251.214844 176.09375 -243.632812 176.09375 -231.917969 C 176.09375 -221.925781 171.265625 -205.382812 154.726562 -198.492188 C 151.28125 -201.246094 141.976562 -204.695312 131.984375 -204.695312 C 127.503906 -204.695312 123.023438 -204.003906 118.886719 -202.28125 Z M 98.554688 -39.628906 C 85.804688 -39.628906 78.570312 -45.488281 78.570312 -53.414062 C 78.570312 -55.136719 78.570312 -56.859375 79.257812 -58.582031 C 82.015625 -67.542969 90.976562 -73.746094 104.070312 -73.746094 C 118.199219 -73.746094 127.160156 -66.164062 136.460938 -56.859375 C 125.78125 -45.144531 110.960938 -39.628906 98.554688 -39.628906 Z M 98.554688 -39.628906 "/></g></g></g><g clip-path="url(#9d921aeda5)"><g clip-path="url(#7c15a3795b)"><g clip-path="url(#74884c2cf6)"><g clip-path="url(#0a74cb3e7d)"><path fill="#7ed957" d="M 101.105469 243.488281 C 106.167969 207.539062 149.269531 188.800781 180.234375 214.085938 C 190.433594 222.414062 198.417969 233.578125 206.980469 245.746094 C 207.367188 246.300781 207.59375 246.285156 208.101562 245.914062 C 226.863281 232.300781 254.234375 211.335938 285.269531 226.351562 C 298.328125 232.671875 306.398438 243.175781 309.070312 257.441406 C 318.011719 305.1875 264.953125 334.769531 228.785156 303.417969 C 219.664062 295.511719 212.316406 285.464844 203.699219 273.175781 C 203.238281 272.519531 202.976562 272.558594 202.386719 272.988281 C 188.65625 282.953125 173.859375 293.808594 157.320312 296.648438 C 123.660156 302.433594 96.265625 278.375 101.109375 243.488281 Z M 121.148438 246.074219 C 118.757812 266.929688 133.035156 279.183594 150.542969 278.296875 C 165.671875 277.535156 180.046875 266.664062 192.257812 257.621094 C 192.667969 257.316406 192.496094 257.136719 192.292969 256.871094 C 184.621094 246.890625 177.476562 235.066406 167.195312 227.894531 C 147.273438 213.996094 124.410156 225.804688 121.148438 246.074219 Z M 289.433594 272.875 C 292.082031 252.777344 278.148438 239.292969 259.328125 240.574219 C 244.519531 241.582031 230.226562 252.402344 218.386719 261.167969 C 217.976562 261.472656 218.082031 261.664062 218.324219 261.980469 C 229.03125 275.910156 240.886719 297.070312 261.625 296.980469 C 275.441406 296.921875 287.175781 286.792969 289.433594 272.875 Z M 289.433594 272.875 " fill-opacity="1" fill-rule="nonzero"/></g></g></g></g><g clip-path="url(#0ef82b6223)"><path fill="#212121" d="M 228.617188 346.863281 C 227.941406 348.382812 226.902344 349.742188 225.632812 350.847656 C 224.363281 351.957031 222.835938 352.773438 221.203125 353.253906 C 220.386719 353.496094 219.542969 353.652344 218.6875 353.710938 C 218.472656 353.71875 218.257812 353.734375 218.042969 353.738281 L 217.402344 353.730469 C 217.296875 353.734375 217.1875 353.726562 217.082031 353.714844 L 216.761719 353.6875 L 216.4375 353.664062 C 216.332031 353.648438 216.222656 353.632812 216.117188 353.617188 C 215.257812 353.511719 214.410156 353.296875 213.574219 353.039062 C 212.734375 352.78125 211.921875 352.4375 211.117188 352.070312 L 210.519531 351.78125 L 209.933594 351.472656 C 209.734375 351.371094 209.542969 351.257812 209.351562 351.148438 C 209.160156 351.035156 208.964844 350.929688 208.773438 350.8125 C 208.011719 350.351562 207.269531 349.859375 206.539062 349.34375 C 205.085938 348.304688 203.703125 347.164062 202.382812 345.949219 C 201.359375 345.007812 200.367188 344.023438 199.425781 342.996094 L 199.585938 342.796875 L 199.84375 342.046875 C 199.859375 342.273438 199.773438 342.558594 199.628906 342.746094 C 199.558594 342.835938 199.613281 342.761719 199.601562 342.777344 L 199.613281 342.761719 L 199.664062 342.703125 L 199.769531 342.582031 L 199.980469 342.332031 L 200.410156 341.84375 C 200.703125 341.515625 201 341.195312 201.300781 340.875 C 201.902344 340.234375 202.523438 339.613281 203.15625 339.003906 C 204.425781 337.789062 205.753906 336.636719 207.144531 335.578125 C 207.835938 335.046875 208.550781 334.550781 209.277344 334.070312 C 210.003906 333.601562 210.75 333.164062 211.507812 332.765625 C 213.03125 331.980469 214.625 331.355469 216.25 331.054688 C 216.351562 331.039062 216.453125 331.011719 216.554688 331 L 217.316406 330.902344 L 217.46875 330.894531 L 218.074219 330.863281 C 218.277344 330.859375 218.484375 330.867188 218.691406 330.867188 C 219.511719 330.894531 220.324219 331.015625 221.117188 331.222656 C 221.910156 331.429688 222.679688 331.726562 223.410156 332.09375 C 224.144531 332.464844 224.835938 332.914062 225.46875 333.4375 C 226.734375 334.484375 227.785156 335.796875 228.492188 337.28125 C 229.210938 338.757812 229.597656 340.394531 229.621094 342.042969 C 229.640625 343.695312 229.300781 345.347656 228.617188 346.863281 Z M 197.683594 341.199219 L 197.671875 341.214844 L 197.617188 341.28125 C 197.613281 341.289062 197.609375 341.296875 197.601562 341.304688 L 197.605469 341.296875 L 197.414062 341.535156 L 197.207031 341.785156 C 197.070312 341.953125 196.929688 342.117188 196.789062 342.285156 C 196.503906 342.613281 196.214844 342.941406 195.921875 343.265625 C 195.332031 343.910156 194.722656 344.542969 194.097656 345.15625 C 192.851562 346.382812 191.535156 347.542969 190.15625 348.601562 C 189.46875 349.136719 188.753906 349.628906 188.035156 350.105469 C 187.308594 350.574219 186.5625 351 185.804688 351.398438 C 184.28125 352.164062 182.683594 352.769531 181.054688 353.050781 L 180.75 353.105469 L 180.441406 353.140625 C 180.238281 353.160156 180.035156 353.195312 179.832031 353.207031 L 179.21875 353.230469 C 179.167969 353.230469 179.117188 353.234375 179.066406 353.234375 L 178.910156 353.230469 L 178.605469 353.226562 C 177.785156 353.195312 176.964844 353.082031 176.171875 352.875 C 174.585938 352.464844 173.078125 351.722656 171.800781 350.691406 C 170.523438 349.660156 169.464844 348.355469 168.734375 346.886719 C 168.007812 345.417969 167.605469 343.789062 167.570312 342.140625 C 167.53125 340.492188 167.855469 338.835938 168.523438 337.3125 C 168.859375 336.554688 169.273438 335.828125 169.765625 335.152344 C 170.261719 334.480469 170.828125 333.855469 171.457031 333.296875 C 172.085938 332.738281 172.773438 332.246094 173.511719 331.832031 C 174.25 331.425781 175.035156 331.09375 175.847656 330.847656 C 176.664062 330.601562 177.503906 330.445312 178.359375 330.378906 C 179.214844 330.308594 180.0625 330.359375 180.917969 330.472656 C 181.773438 330.585938 182.621094 330.804688 183.453125 331.074219 C 183.871094 331.203125 184.28125 331.367188 184.691406 331.523438 C 185.09375 331.695312 185.503906 331.859375 185.898438 332.058594 C 186.300781 332.242188 186.691406 332.453125 187.085938 332.65625 C 187.472656 332.875 187.863281 333.085938 188.238281 333.320312 C 188.621094 333.546875 188.992188 333.792969 189.371094 334.03125 C 189.742188 334.277344 190.113281 334.519531 190.476562 334.78125 C 191.207031 335.292969 191.921875 335.835938 192.617188 336.394531 C 193.316406 336.957031 193.996094 337.535156 194.664062 338.132812 C 195.734375 339.085938 196.765625 340.078125 197.753906 341.117188 L 197.742188 341.128906 Z M 230.394531 336.410156 C 229.59375 334.636719 228.378906 333.054688 226.890625 331.777344 C 225.410156 330.5 223.625 329.558594 221.71875 329.035156 C 220.765625 328.773438 219.78125 328.613281 218.792969 328.5625 C 218.546875 328.558594 218.300781 328.546875 218.050781 328.546875 L 217.304688 328.574219 L 217.117188 328.582031 L 216.933594 328.605469 L 216.5625 328.644531 L 216.195312 328.6875 C 216.074219 328.703125 215.953125 328.730469 215.832031 328.75 C 213.886719 329.078125 212.082031 329.789062 210.390625 330.640625 C 209.546875 331.074219 208.734375 331.546875 207.941406 332.046875 C 207.160156 332.554688 206.386719 333.082031 205.648438 333.640625 C 204.164062 334.757812 202.765625 335.96875 201.429688 337.238281 C 200.765625 337.875 200.117188 338.523438 199.480469 339.191406 C 199.164062 339.527344 198.851562 339.863281 198.542969 340.207031 C 198.390625 340.378906 198.238281 340.554688 198.085938 340.726562 L 197.855469 340.992188 L 197.804688 341.054688 C 195.753906 338.5625 193.4375 336.273438 190.890625 334.238281 C 190.539062 333.953125 190.171875 333.683594 189.808594 333.410156 C 189.441406 333.144531 189.070312 332.878906 188.691406 332.628906 C 188.3125 332.371094 187.921875 332.132812 187.535156 331.890625 C 187.140625 331.660156 186.746094 331.421875 186.335938 331.210938 C 185.9375 330.988281 185.515625 330.792969 185.101562 330.59375 C 184.679688 330.40625 184.257812 330.214844 183.820312 330.058594 C 182.949219 329.730469 182.050781 329.453125 181.121094 329.285156 C 181.003906 329.265625 180.890625 329.234375 180.773438 329.21875 L 180.421875 329.171875 C 180.1875 329.140625 179.953125 329.105469 179.710938 329.097656 C 179.472656 329.085938 179.234375 329.0625 178.996094 329.058594 C 178.761719 329.0625 178.523438 329.054688 178.285156 329.066406 C 177.332031 329.101562 176.382812 329.238281 175.457031 329.476562 C 174.53125 329.714844 173.632812 330.058594 172.78125 330.496094 C 171.929688 330.933594 171.125 331.464844 170.386719 332.074219 C 167.414062 334.5 165.605469 338.296875 165.613281 342.15625 C 165.609375 344.082031 166.03125 346.015625 166.851562 347.773438 C 167.671875 349.535156 168.902344 351.105469 170.398438 352.363281 C 171.898438 353.613281 173.679688 354.546875 175.582031 355.0625 C 176.53125 355.320312 177.511719 355.472656 178.496094 355.523438 L 178.867188 355.535156 L 179.050781 355.542969 C 179.113281 355.542969 179.175781 355.539062 179.238281 355.539062 L 179.980469 355.519531 C 180.226562 355.507812 180.46875 355.472656 180.714844 355.453125 L 181.082031 355.414062 L 181.445312 355.355469 C 182.417969 355.210938 183.355469 354.945312 184.265625 354.640625 L 184.945312 354.394531 C 185.167969 354.308594 185.386719 354.210938 185.605469 354.121094 L 185.9375 353.984375 L 186.261719 353.832031 C 186.472656 353.730469 186.691406 353.628906 186.902344 353.527344 C 187.746094 353.09375 188.566406 352.632812 189.359375 352.128906 C 190.144531 351.621094 190.917969 351.09375 191.65625 350.53125 C 192.398438 349.96875 193.117188 349.386719 193.8125 348.777344 C 194.507812 348.167969 195.191406 347.542969 195.847656 346.898438 C 196.503906 346.253906 197.144531 345.59375 197.765625 344.914062 C 198.078125 344.574219 198.386719 344.230469 198.6875 343.878906 C 198.835938 343.707031 198.988281 343.53125 199.136719 343.351562 L 199.359375 343.082031 L 199.367188 343.070312 C 199.671875 343.453125 199.984375 343.832031 200.304688 344.207031 C 200.890625 344.890625 201.496094 345.558594 202.117188 346.214844 C 203.371094 347.515625 204.703125 348.746094 206.121094 349.886719 C 206.832031 350.453125 207.558594 351.003906 208.320312 351.507812 C 208.507812 351.640625 208.707031 351.757812 208.898438 351.882812 C 209.089844 352.007812 209.28125 352.128906 209.480469 352.246094 L 210.074219 352.59375 L 210.683594 352.921875 C 211.5 353.347656 212.335938 353.75 213.214844 354.0625 C 214.089844 354.378906 214.988281 354.652344 215.921875 354.8125 C 216.035156 354.835938 216.152344 354.859375 216.269531 354.878906 L 216.621094 354.921875 L 216.976562 354.964844 C 217.09375 354.980469 217.210938 354.996094 217.328125 355 L 218.042969 355.035156 C 218.28125 355.042969 218.519531 355.03125 218.757812 355.03125 C 219.710938 355.003906 220.660156 354.867188 221.585938 354.636719 C 223.441406 354.167969 225.199219 353.296875 226.691406 352.089844 C 228.183594 350.882812 229.421875 349.355469 230.261719 347.621094 C 231.105469 345.894531 231.566406 343.972656 231.585938 342.042969 C 231.605469 340.117188 231.199219 338.175781 230.394531 336.410156 " fill-opacity="1" fill-rule="nonzero"/></g></svg>